PathFileType	4	(X/Y/Z)	Kaydara																																																																																																																									
DataRate	CameraRate	NumFrames	NumMarkers	Units	OrigDataRate	OrigDataStartFrame	OrigNumFrames																																																																																																																					
30	30	9	41	mm	30	19	151																																																																																																																					
Frame#	Time	SALE_LFHD			SALE_RFHD			SALE_LBHD			SALE_RBHD			SALE_LFTShould			SALE_RFTShould			SALE_LRRShould			SALE_RRRShould			SALE_T10			SALE_STRN			SALE_TRUN			SALE_LSHO			SALE_LUPA			SALE_LELB			SALE_LFRM			SALE_LWRA			SALE_LWRB			SALE_LFIN			SALE_RSHO			SALE_RUPA			SALE_RELB			SALE_RFRM			SALE_RWRB			SALE_RFIN			SALE_LFWT			SALE_RFWT			SALE_LBWT			SALE_RBWT			SALE_LTHI			SALE_LKNE			SALE_RWRA			SALE_LSHN			SALE_LANK			SALE_LHEE			SALE_LTOE			SALE_RTHI			SALE_RKNE			SALE_RSHN			SALE_RANK			SALE_RHEE			SALE_RTOE		
		X1	Y1	Z1	X2	Y2	Z2	X3	Y3	Z3	X4	Y4	Z4	X5	Y5	Z5	X6	Y6	Z6	X7	Y7	Z7	X8	Y8	Z8	X9	Y9	Z9	X10	Y10	Z10	X11	Y11	Z11	X12	Y12	Z12	X13	Y13	Z13	X14	Y14	Z14	X15	Y15	Z15	X16	Y16	Z16	X17	Y17	Z17	X18	Y18	Z18	X19	Y19	Z19	X20	Y20	Z20	X21	Y21	Z21	X22	Y22	Z22	X23	Y23	Z23	X24	Y24	Z24	X25	Y25	Z25	X26	Y26	Z26	X27	Y27	Z27	X28	Y28	Z28	X29	Y29	Z29	X30	Y30	Z30	X31	Y31	Z31	X32	Y32	Z32	X33	Y33	Z33	X34	Y34	Z34	X35	Y35	Z35	X36	Y36	Z36	X37	Y37	Z37	X38	Y38	Z38	X39	Y39	Z39	X40	Y40	Z40	X41	Y41	Z41
																																																																																																																												
19	0.61	219.62523	1659.51324	-1993.24799	86.32169	1653.21808	-1991.987	216.35353	1632.42798	-2125.23529	90.2837	1625.29037	-2117.54639	239.18077	1389.06403	-2018.59283	96.21252	1388.03223	-2012.98965	226.45586	1444.11819	-2133.46603	77.17207	1451.11008	-2119.30618	146.89814	1292.49786	-2193.3017	163.89606	1318.11615	-1966.71249	161.55375	1232.68776	-1924.53278	349.56913	1413.18115	-2095.91232	382.95982	1197.13821	-2123.12012	362.72766	1089.25339	-2141.36887	396.57146	983.70193	-2114.4873	351.06911	850.95383	-2029.22104	405.41695	839.70894	-2080.49637	413.02101	800.44662	-2029.03961	-13.57768	1418.76343	-2072.55127	-44.82535	1191.35559	-2142.30835	-78.59201	1090.95963	-2102.08588	-71.45448	977.20932	-2109.20364	-95.2263	839.14581	-2059.23798	-114.25138	805.83588	-2006.94077	284.9527	975.26352	-1988.99277	5.66279	973.64143	-1997.91962	231.35551	1040.66879	-2156.15692	54.04408	1045.60837	-2161.08887	280.91074	678.22975	-2162.13013	269.76923	505.46562	-2090.11963	-60.47335	857.01263	-1999.56558	264.41645	307.82349	-2097.32025	257.14005	124.86457	-2150.12375	216.35376	76.09187	-2212.39594	233.20446	86.98275	-2015.62592	1.29272	724.62013	-2160.69183	22.13189	562.6017	-2062.16949	76.38246	374.87198	-2085.79376	33.79706	122.61766	-2143.47733	48.13491	78.11152	-2023.51913	76.96327	63.82092	-2214.89349
20	0.643	220.18297	1659.43329	-1992.83386	86.79082	1653.26447	-1991.68854	216.86562	1632.38708	-2124.77631	90.80728	1625.37262	-2117.21176	239.46007	1388.91388	-2018.39371	96.33411	1387.9686	-2012.7095	226.70603	1444.07684	-2133.17932	77.40654	1451.12381	-2118.96194	147.05732	1292.53555	-2193.01575	164.07469	1317.95395	-1966.5535	161.76313	1232.53136	-1924.45999	349.70287	1413.013	-2095.71442	383.04016	1196.94519	-2122.89047	362.72137	1088.85574	-2140.92392	396.50238	983.49197	-2114.12704	350.74238	850.80215	-2028.78326	405.21034	839.53018	-2079.93546	412.78324	800.35408	-2028.44467	-13.38755	1418.84354	-2072.27051	-44.79022	1191.48087	-2142.07123	-78.53448	1091.04782	-2101.83853	-71.45436	977.31102	-2109.02054	-95.31853	839.25316	-2059.06235	-114.33215	805.92026	-2006.81976	284.94564	975.23834	-1988.75183	5.63288	973.56468	-1998.35754	231.39568	1040.67078	-2155.89828	54.08212	1045.62614	-2160.86609	280.89449	678.21869	-2161.9342	269.63064	505.30006	-2090.36606	-60.46275	857.0858	-1999.42627	264.35278	307.78757	-2097.2438	257.14886	124.86707	-2150.12238	216.38475	76.11228	-2212.40128	233.19382	86.9882	-2015.62775	1.33642	724.56802	-2160.60944	22.07406	562.61379	-2062.1489	76.38078	374.88804	-2085.75912	33.78987	122.62191	-2143.48404	48.12116	78.10974	-2023.52997	76.99127	63.81281	-2214.88892
21	0.677	220.45898	1659.24728	-1992.36603	87.25163	1653.25623	-1991.41953	217.41598	1632.26089	-2124.42947	91.32886	1625.38101	-2116.95404	239.75946	1388.82019	-2018.24127	96.60462	1387.87094	-2012.47971	227.00087	1444.01016	-2132.89047	77.69846	1451.13663	-2118.63495	147.23005	1292.55493	-2192.7153	164.31253	1317.80838	-1966.4241	161.88669	1232.33459	-1924.29169	349.88869	1412.86591	-2095.54688	383.15388	1196.77032	-2122.69409	362.79728	1088.79028	-2140.88989	396.5667	983.38387	-2114.0538	350.60364	850.4789	-2028.77487	405.16438	839.34486	-2079.79401	412.76142	800.15739	-2028.35693	-13.14449	1418.86841	-2071.98959	-44.61749	1191.50276	-2141.83487	-78.44594	1091.11183	-2101.67313	-71.42818	977.36496	-2108.93112	-95.38087	839.33838	-2059.10324	-114.40998	805.91522	-2006.96777	284.92191	975.14458	-1988.42133	5.50304	973.52768	-1997.72354	231.41722	1040.66109	-2155.59601	54.12982	1045.67375	-2160.66162	280.91774	678.17657	-2161.74973	269.29462	504.81598	-2091.22665	-60.5722	856.98959	-1999.52087	264.34179	307.8356	-2097.14493	257.15185	124.86605	-2150.10849	216.36759	76.11773	-2212.40662	233.18766	86.97851	-2015.64041	1.38944	724.62242	-2160.57953	22.07384	562.5985	-2062.08984	76.39958	374.84329	-2085.68497	33.79641	122.65077	-2143.4761	48.11381	78.09443	-2023.54691	77.0104	63.83359	-2214.9025
22	0.71	221.01309	1659.19327	-1992.09869	87.68813	1653.29468	-1991.13739	217.89837	1632.14676	-2124.1214	91.80384	1625.41977	-2116.65039	238.34743	1387.76291	-2016.60004	96.85335	1387.82913	-2012.26868	227.2654	1443.94623	-2132.57843	78.01915	1451.14578	-2118.34808	147.4557	1292.55844	-2192.48779	164.43729	1317.63977	-1966.12152	162.02984	1232.17728	-1924.15253	350.13649	1412.63214	-2095.04303	383.33549	1196.62842	-2122.52121	362.98279	1088.77975	-2140.86304	396.72569	983.2251	-2114.1011	350.9391	850.39841	-2028.81317	405.30453	839.13971	-2080.01862	412.91401	799.90974	-2028.63861	-12.88588	1418.92654	-2071.75568	-44.38608	1191.5509	-2141.64276	-78.27307	1091.17699	-2101.57349	-71.32191	977.48596	-2109.04495	-95.47692	839.38011	-2059.36005	-114.47234	805.86349	-2007.34146	284.95886	975.08881	-1988.16559	5.59433	973.55423	-1997.88803	231.48724	1040.63126	-2155.20477	54.21472	1045.67017	-2160.38055	280.98017	678.16933	-2161.55441	269.8093	505.5444	-2089.58832	-60.53971	856.94962	-1999.74396	264.3154	307.87668	-2097.06589	257.14905	124.83617	-2150.14648	216.38454	76.11046	-2212.38647	233.17974	86.95776	-2015.6546	1.42616	724.65904	-2160.45013	22.06221	562.58472	-2061.98395	76.36879	374.8719	-2085.61798	33.7955	122.65268	-2143.47321	48.11063	78.10636	-2023.52829	77.02957	63.8119	-2214.89105
23	0.743	221.432	1659.02206	-1991.86691	88.18737	1653.33588	-1990.9111	218.29622	1632.07993	-2123.87131	92.18575	1625.46143	-2116.45401	237.47009	1387.01843	-2015.66788	97.07189	1387.76505	-2012.06894	227.5704	1443.91846	-2132.32605	78.2864	1451.17676	-2118.11905	147.676	1292.57233	-2192.25281	164.73549	1317.55798	-1966.06995	162.18618	1231.99287	-1924.03976	350.47115	1412.62985	-2094.9675	383.56113	1196.54282	-2122.38983	363.21545	1088.70972	-2140.84351	396.89964	983.04497	-2114.15131	351.15067	849.94125	-2029.43192	405.62496	839.01352	-2080.61508	413.21381	799.6756	-2029.25888	-12.61978	1418.92532	-2071.57532	-44.11785	1191.60637	-2141.6246	-78.11977	1091.2394	-2101.67313	-71.14721	977.55493	-2109.26254	-95.47233	839.3898	-2059.91745	-114.49143	805.77209	-2007.90878	284.94909	975.00053	-1987.8215	5.61198	973.49655	-1997.78183	231.60738	1040.64362	-2154.87427	54.34854	1045.6897	-2160.11307	281.04513	678.17261	-2161.33698	269.62433	505.27348	-2089.90784	-60.5893	856.80779	-2000.1622	264.29926	307.81942	-2096.98639	257.1624	124.87453	-2150.0766	216.37907	76.13022	-2212.40906	233.18899	86.98693	-2015.63309	1.47445	724.67491	-2160.24887	22.10495	562.58942	-2061.83838	76.38035	374.87671	-2085.47791	33.79403	122.69564	-2143.49106	48.11101	78.09138	-2023.53622	77.02369	63.84141	-2214.91135
24	0.777	221.72405	1658.87909	-1991.59821	88.69133	1653.32077	-1990.81055	218.68887	1632.07932	-2123.70422	92.57414	1625.513	-2116.24496	239.15209	1387.72156	-2016.41586	96.51362	1387.72461	-2012.27112	227.89158	1443.87711	-2132.20612	78.58786	1451.14273	-2118.00079	147.93558	1292.49481	-2192.04178	164.87978	1317.45102	-1965.81039	162.42607	1231.95198	-1923.87833	350.69714	1412.5473	-2094.86313	383.8755	1196.48331	-2122.37106	363.49598	1088.57422	-2140.76447	397.29485	983.04825	-2114.5697	351.67931	849.78821	-2030.13565	406.02676	838.81546	-2081.44897	413.75587	799.38766	-2030.298	-12.36377	1418.89359	-2071.5036	-43.771	1191.66649	-2141.70303	-77.87977	1091.25099	-2101.85043	-70.96282	977.6062	-2109.59167	-95.33327	839.45244	-2060.45364	-114.41119	805.65323	-2008.52905	285.06874	974.94072	-1987.44827	5.69521	973.61061	-1997.26715	231.75463	1040.60204	-2154.50699	54.49932	1045.71205	-2159.86023	281.13869	678.19504	-2161.07529	269.25468	504.67667	-2091.15555	-60.46324	856.65588	-2000.69473	264.35547	307.82091	-2096.88995	257.16307	124.87229	-2150.09491	216.37554	76.14021	-2212.41638	233.1695	86.98062	-2015.63446	1.5883	724.67857	-2160.10803	22.1554	562.59277	-2061.67709	76.47377	374.84657	-2085.35797	33.82733	122.68997	-2143.44376	48.11537	78.08843	-2023.53256	77.02113	63.8519	-2214.91302
25	0.81	222.33927	1658.85635	-1991.47446	88.98828	1653.25256	-1990.38025	219.02016	1632.06818	-2123.46115	92.93791	1625.58914	-2116.01166	240.51458	1388.38943	-2017.58743	97.49637	1387.71255	-2011.85715	228.16666	1443.78845	-2132.0224	78.84231	1451.12579	-2117.92633	148.22426	1292.40036	-2191.83029	165.14317	1317.43011	-1965.76904	162.66436	1231.92429	-1923.78586	350.9095	1412.41409	-2094.66995	384.13082	1196.43433	-2122.3996	363.81477	1088.62511	-2140.9375	397.66857	982.98782	-2114.95605	352.16709	849.38263	-2031.08734	406.50124	838.6364	-2082.43088	414.15775	799.0419	-2031.24924	-12.11512	1418.8797	-2071.45142	-43.40938	1191.65138	-2141.72516	-77.58777	1091.20102	-2101.93802	-70.68048	977.6001	-2109.87335	-95.07472	839.46892	-2060.98785	-114.29469	805.43434	-2009.216	285.24149	974.92561	-1987.13211	5.7963	973.58772	-1997.00424	231.97628	1040.54688	-2154.14627	54.65227	1045.68497	-2159.59076	281.23333	678.18344	-2160.75363	269.85977	505.45746	-2088.91602	-60.29518	856.32233	-2001.16653	264.36817	307.74384	-2096.81595	257.18332	124.83413	-2150.01617	216.36654	76.14783	-2212.41043	233.19742	86.98926	-2015.62027	1.73544	724.66492	-2159.85016	22.28429	562.56432	-2061.46271	76.57935	374.85161	-2085.25421	33.85303	122.70385	-2143.40378	48.11187	78.08671	-2023.53043	77.02602	63.8964	-2214.89868
26	0.843	222.70401	1658.77869	-1991.30936	89.35061	1653.22876	-1990.15244	219.30399	1632.07336	-2123.30612	93.20726	1625.70053	-2115.76324	240.86897	1388.26584	-2017.25555	97.71793	1387.66449	-2011.66794	228.42964	1443.75092	-2131.93512	79.0911	1451.06842	-2117.91702	148.5602	1292.31339	-2191.68747	165.28717	1317.36511	-1965.56946	162.861	1231.89453	-1923.66898	351.16039	1412.41333	-2094.60327	384.40105	1196.43753	-2122.45743	364.07398	1088.65166	-2141.0614	398.08876	983.03795	-2115.56198	352.78603	849.19563	-2031.92398	407.07077	838.50929	-2083.54462	414.76532	798.74649	-2032.49008	-11.85521	1418.78906	-2071.4769	-43.03971	1191.55098	-2141.72379	-77.23944	1091.1618	-2102.04971	-70.328	977.56111	-2110.13489	-94.70833	839.33655	-2061.52222	-114.05563	805.17532	-2009.88815	285.39812	974.85435	-1986.7749	5.93025	973.63251	-1996.47247	232.18428	1040.49202	-2153.78555	54.87884	1045.62126	-2159.30878	281.42574	678.21579	-2160.46234	269.80253	505.17048	-2089.27795	-60.0949	856.15227	-2001.72089	264.42356	307.75454	-2096.67557	257.18325	124.86356	-2149.96826	216.39051	76.12175	-2212.35718	233.17768	86.99027	-2015.63705	1.87556	724.67178	-2159.5668	22.42475	562.57259	-2061.28708	76.65992	374.82685	-2085.11383	33.88979	122.73372	-2143.40088	48.14353	78.09614	-2023.49579	77.06819	63.87448	-2214.85916
27	0.877	222.94893	1658.67661	-1991.07895	89.69292	1653.26981	-1990.16937	219.54569	1632.17728	-2123.16254	93.42237	1625.79727	-2115.62347	241.1211	1388.38486	-2017.3848	97.91367	1387.60635	-2011.67633	228.69728	1443.68286	-2131.81854	79.39651	1451.0144	-2117.88315	148.87059	1292.21344	-2191.52313	165.56187	1317.32803	-1965.51666	163.12326	1231.87569	-1923.57788	351.37619	1412.35794	-2094.46945	384.73415	1196.45981	-2122.49329	364.40754	1088.67996	-2141.16989	398.51437	983.05717	-2116.03714	353.71422	848.79677	-2032.87979	407.60323	838.42033	-2084.67468	415.34119	798.49838	-2033.73459	-11.61407	1418.67767	-2071.47491	-42.58545	1191.43944	-2141.77826	-76.81002	1091.04836	-2102.1431	-69.90925	977.47414	-2110.40695	-94.44442	839.19975	-2062.06161	-113.76154	804.90868	-2010.52475	285.61375	974.83253	-1986.38779	6.10461	973.74908	-1996.05042	232.44047	1040.43152	-2153.45184	55.13512	1045.5484	-2159.07822	281.57259	678.21388	-2160.12756	270.17767	505.51109	-2088.48007	-59.79336	855.93521	-2002.16019	264.42062	307.7437	-2096.56662	257.20625	124.90674	-2149.89838	216.37846	76.13115	-2212.35458	233.1765	86.98075	-2015.62531	2.03118	724.65103	-2159.27521	22.59626	562.55665	-2061.07651	76.78831	374.78882	-2084.9086	33.92202	122.761	-2143.38516	48.14718	78.10478	-2023.49884	77.07503	63.91241	-2214.85596
